<svg width="22" height="22" viewBox="0 0 22 22" fill="none" xmlns="http://www.w3.org/2000/svg">
<g opacity="0.9">
<path fill-rule="evenodd" clip-rule="evenodd" d="M10.9998 2.74984C6.44349 2.74984 2.74984 6.44349 2.74984 10.9998C2.74984 15.5562 6.44349 19.2498 10.9998 19.2498C15.5562 19.2498 19.2498 15.5562 19.2498 10.9998C19.2498 6.44349 15.5562 2.74984 10.9998 2.74984ZM0.916504 10.9998C0.916504 5.43097 5.43097 0.916504 10.9998 0.916504C16.5687 0.916504 21.0832 5.43097 21.0832 10.9998C21.0832 16.5687 16.5687 21.0832 10.9998 21.0832C5.43097 21.0832 0.916504 16.5687 0.916504 10.9998Z" fill="black"/>
<path fill-rule="evenodd" clip-rule="evenodd" d="M11.0002 4.5835C11.5064 4.5835 11.9168 4.9939 11.9168 5.50016V10.4336L15.0768 12.0136C15.5296 12.24 15.7131 12.7906 15.4867 13.2434C15.2603 13.6963 14.7097 13.8798 14.2569 13.6534L10.5902 11.8201C10.2797 11.6648 10.0835 11.3474 10.0835 11.0002V5.50016C10.0835 4.9939 10.4939 4.5835 11.0002 4.5835Z" fill="black"/>
</g>
</svg>
