<svg width="18" height="18" viewBox="0 0 18 18" fill="none" xmlns="http://www.w3.org/2000/svg">
<path fill-rule="evenodd" clip-rule="evenodd" d="M14.0303 3.96967C14.3232 4.26256 14.3232 4.73744 14.0303 5.03033L5.78033 13.2803C5.48744 13.5732 5.01256 13.5732 4.71967 13.2803L0.96967 9.53033C0.676777 9.23744 0.676777 8.76256 0.96967 8.46967C1.26256 8.17678 1.73744 8.17678 2.03033 8.46967L5.25 11.6893L12.9697 3.96967C13.2626 3.67678 13.7374 3.67678 14.0303 3.96967Z" fill="white" fill-opacity="0.6"/>
<path fill-rule="evenodd" clip-rule="evenodd" d="M17.0303 6.96967C17.3232 7.26256 17.3232 7.73744 17.0303 8.03033L11.4053 13.6553C11.1124 13.9482 10.6376 13.9482 10.3447 13.6553L9.21967 12.5303C8.92678 12.2374 8.92678 11.7626 9.21967 11.4697C9.51256 11.1768 9.98744 11.1768 10.2803 11.4697L10.875 12.0643L15.9697 6.96967C16.2626 6.67678 16.7374 6.67678 17.0303 6.96967Z" fill="white" fill-opacity="0.6"/>
</svg>
