<svg width="22" height="22" viewBox="0 0 22 22" fill="none" xmlns="http://www.w3.org/2000/svg">
<path fill-rule="evenodd" clip-rule="evenodd" d="M10.9984 3.66683C9.05414 3.66728 7.18957 4.43985 5.81471 5.81471C4.43945 7.18998 3.66683 9.05524 3.66683 11.0002C3.66683 11.5064 3.25642 11.9168 2.75016 11.9168C2.2439 11.9168 1.8335 11.5064 1.8335 11.0002C1.8335 8.56901 2.79927 6.23743 4.51835 4.51835C6.23743 2.79927 8.56901 1.8335 11.0002 1.8335H11.0036C13.5465 1.84307 15.9873 2.83532 17.8156 4.60278L17.8267 4.61365L19.8983 6.68532C20.2563 7.0433 20.2563 7.6237 19.8983 7.98168C19.5404 8.33966 18.96 8.33966 18.602 7.98168L16.5359 5.91563C15.0488 4.48069 13.0651 3.67505 10.9984 3.66683Z" fill="#C53E38"/>
<path fill-rule="evenodd" clip-rule="evenodd" d="M19.25 1.8335C19.7563 1.8335 20.1667 2.2439 20.1667 2.75016V7.3335C20.1667 7.83976 19.7563 8.25016 19.25 8.25016H14.6667C14.1604 8.25016 13.75 7.83976 13.75 7.3335C13.75 6.82724 14.1604 6.41683 14.6667 6.41683H18.3333V2.75016C18.3333 2.2439 18.7437 1.8335 19.25 1.8335Z" fill="#C53E38"/>
<path fill-rule="evenodd" clip-rule="evenodd" d="M19.2502 10.0835C19.7564 10.0835 20.1668 10.4939 20.1668 11.0002C20.1668 13.4313 19.2011 15.7629 17.482 17.482C15.7629 19.2011 13.4313 20.1668 11.0002 20.1668L10.9967 20.1668C8.45379 20.1573 6.013 19.165 4.18471 17.3976L4.17365 17.3867L2.10198 15.315C1.744 14.957 1.744 14.3766 2.10198 14.0186C2.45996 13.6607 3.04036 13.6607 3.39834 14.0186L5.46437 16.0847C6.95153 17.5197 8.93524 18.3253 11.002 18.3335C12.9462 18.333 14.8108 17.5605 16.1856 16.1856C17.5609 14.8103 18.3335 12.9451 18.3335 11.0002C18.3335 10.4939 18.7439 10.0835 19.2502 10.0835Z" fill="#C53E38"/>
<path fill-rule="evenodd" clip-rule="evenodd" d="M1.8335 14.6667C1.8335 14.1604 2.2439 13.75 2.75016 13.75H7.3335C7.83976 13.75 8.25016 14.1604 8.25016 14.6667C8.25016 15.1729 7.83976 15.5833 7.3335 15.5833H3.66683V19.25C3.66683 19.7563 3.25642 20.1667 2.75016 20.1667C2.2439 20.1667 1.8335 19.7563 1.8335 19.25V14.6667Z" fill="#C53E38"/>
</svg>
