<svg width="22" height="22" viewBox="0 0 22 22" fill="none" xmlns="http://www.w3.org/2000/svg">
<g opacity="0.7">
<path fill-rule="evenodd" clip-rule="evenodd" d="M3.58845 10.8203C4.62077 9.78796 6.0209 9.20801 7.48083 9.20801H14.0864C15.5463 9.20801 16.9465 9.78796 17.9788 10.8203C19.0111 11.8526 19.5911 13.2527 19.5911 14.7127V16.9145C19.5911 17.5226 19.0982 18.0155 18.4901 18.0155C17.8821 18.0155 17.3892 17.5226 17.3892 16.9145V14.7127C17.3892 13.8367 17.0412 12.9966 16.4218 12.3772C15.8024 11.7578 14.9624 11.4099 14.0864 11.4099H7.48083C6.60487 11.4099 5.76479 11.7578 5.1454 12.3772C4.52601 12.9966 4.17804 13.8367 4.17804 14.7127V16.9145C4.17804 17.5226 3.68513 18.0155 3.0771 18.0155C2.46908 18.0155 1.97617 17.5226 1.97617 16.9145V14.7127C1.97617 13.2527 2.55613 11.8526 3.58845 10.8203Z" fill="white"/>
<circle cx="7.89966" cy="15.1295" r="0.98694" fill="white"/>
<circle cx="13.8217" cy="15.1295" r="0.98694" fill="white"/>
<rect x="9.87032" y="4.27344" width="1.97388" height="5.92164" rx="0.98694" fill="white"/>
<rect x="13.8274" y="3.32178" width="1.97388" height="5.92164" rx="0.98694" transform="rotate(90.3379 13.8274 3.32178)" fill="white"/>
</g>
</svg>
